<svg width="18" height="18" viewBox="0 0 18 18" fill="none" xmlns="http://www.w3.org/2000/svg">
<path d="M8.74072 17.8716C9.18066 17.8716 9.5542 17.5146 9.5542 17.083V9.75342H16.668C17.0996 9.75342 17.4731 9.37988 17.4731 8.93994C17.4731 8.4917 17.0996 8.12646 16.668 8.12646H9.5542V0.788574C9.5542 0.356934 9.18066 0 8.74072 0C8.29248 0 7.92725 0.356934 7.92725 0.788574V8.12646H0.813477C0.381836 8.12646 0 8.4917 0 8.93994C0 9.37988 0.381836 9.75342 0.813477 9.75342H7.92725V17.083C7.92725 17.5146 8.29248 17.8716 8.74072 17.8716Z" fill="white"/>
</svg>
