<svg width="14" height="14" viewBox="0 0 14 14" fill="none" xmlns="http://www.w3.org/2000/svg">
<path d="M12.4444 9.47329V3.1111C12.4444 1.39222 11.0522 0 9.33331 0C7.61443 0 6.22221 1.39222 6.22221 3.1111V10.8888C6.22221 11.7444 5.52221 12.4444 4.66666 12.4444C3.8111 12.4444 3.1111 11.7444 3.1111 10.8888V4.52665C4.01332 4.19999 4.66666 3.34443 4.66666 2.33333C4.66666 1.04222 3.62444 0 2.33333 0C1.04222 0 0 1.04222 0 2.33333C0 3.34443 0.653332 4.19999 1.55555 4.52665V10.8888C1.55555 12.6078 2.94777 14 4.66666 14C6.38554 14 7.77776 12.6078 7.77776 10.8888V3.1111C7.77776 2.25555 8.47776 1.55555 9.33331 1.55555C10.1889 1.55555 10.8889 2.25555 10.8889 3.1111V9.47329C9.81946 9.85218 9.17835 10.9462 9.3705 12.0643C9.56287 13.1827 10.5323 14 11.6666 14C12.9577 14 14 12.9578 14 11.6667C14 10.6556 13.3466 9.79997 12.4444 9.47329ZM2.33333 3.1111C1.90555 3.1111 1.55555 2.7611 1.55555 2.33333C1.55555 1.90555 1.90555 1.55555 2.33333 1.55555C2.76111 1.55555 3.1111 1.90555 3.1111 2.33333C3.1111 2.7611 2.76111 3.1111 2.33333 3.1111ZM11.6666 12.4444C11.2389 12.4444 10.8889 12.0944 10.8889 11.6667C10.8889 11.2388 11.2389 10.8888 11.6666 10.8888C12.0944 10.8888 12.4444 11.2388 12.4444 11.6667C12.4444 12.0944 12.0944 12.4444 11.6666 12.4444Z" fill="white"/>
</svg>
