<svg width="29" height="28" viewBox="0 0 29 28" fill="none" xmlns="http://www.w3.org/2000/svg">
<mask id="mask0_67_1138" style="mask-type:luminance" maskUnits="userSpaceOnUse" x="0" y="0" width="29" height="28">
<path d="M28.5 0H0.5V28H28.5V0Z" fill="white"/>
</mask>
<g mask="url(#mask0_67_1138)">
<g opacity="0.3">
<path d="M7.49992 8.16665C8.14425 8.16665 8.66658 7.64431 8.66658 6.99998C8.66658 6.35565 8.14425 5.83331 7.49992 5.83331C6.85559 5.83331 6.33325 6.35565 6.33325 6.99998C6.33325 7.64431 6.85559 8.16665 7.49992 8.16665Z" fill="#FFE4E1"/>
</g>
<g opacity="0.3">
<path d="M21.4999 22.1666C22.1442 22.1666 22.6666 21.6443 22.6666 21C22.6666 20.3556 22.1442 19.8333 21.4999 19.8333C20.8556 19.8333 20.3333 20.3556 20.3333 21C20.3333 21.6443 20.8556 22.1666 21.4999 22.1666Z" fill="#FFE4E1"/>
</g>
<path d="M22.6667 17.7099V8.1666C22.6667 5.58827 20.5783 3.49994 18 3.49994C15.4217 3.49994 13.3333 5.58827 13.3333 8.1666V19.8332C13.3333 21.1166 12.2833 22.1666 11 22.1666C9.71667 22.1666 8.66667 21.1166 8.66667 19.8332V10.2899C10.02 9.79993 11 8.5166 11 6.99994C11 5.06327 9.43667 3.49994 7.5 3.49994C5.56333 3.49994 4 5.06327 4 6.99994C4 8.5166 4.98 9.79993 6.33333 10.2899V19.8332C6.33333 22.4116 8.42167 24.5 11 24.5C13.5783 24.5 15.6667 22.4116 15.6667 19.8332V8.1666C15.6667 6.88327 16.7167 5.83327 18 5.83327C19.2833 5.83327 20.3333 6.88327 20.3333 8.1666V17.7099C18.7292 18.2782 17.7676 19.9193 18.0558 21.5965C18.3443 23.274 19.7986 24.5 21.5 24.5C23.4367 24.5 25 22.9366 25 21C25 19.4833 24.02 18.1999 22.6667 17.7099ZM7.5 8.1666C6.85833 8.1666 6.33333 7.64161 6.33333 6.99994C6.33333 6.35827 6.85833 5.83327 7.5 5.83327C8.14167 5.83327 8.66667 6.35827 8.66667 6.99994C8.66667 7.64161 8.14167 8.1666 7.5 8.1666ZM21.5 22.1666C20.8583 22.1666 20.3333 21.6416 20.3333 21C20.3333 20.3582 20.8583 19.8332 21.5 19.8332C22.1417 19.8332 22.6667 20.3582 22.6667 21C22.6667 21.6416 22.1417 22.1666 21.5 22.1666Z" fill="#FFE4E1"/>
</g>
</svg>
